<svg width="30" height="30" viewBox="0 0 30 30" fill="none" xmlns="http://www.w3.org/2000/svg">
<rect width="30" height="30" rx="2.22" fill="white"/>
<path fill-rule="evenodd" clip-rule="evenodd" d="M3.0253 15.9709C3.0253 15.6117 3.01897 15.3103 3 15.0415H3.65826L3.68913 15.5033H3.7076C3.85679 15.2593 4.12964 14.9707 4.63858 14.9707C5.03583 14.9707 5.34611 15.202 5.47621 15.5481H5.48898C5.59467 15.375 5.71838 15.2469 5.861 15.1568C6.02872 15.0352 6.22118 14.9707 6.46942 14.9707C6.97198 14.9707 7.48054 15.3232 7.48054 16.3234V18.163H6.73594V16.4389C6.73594 15.9198 6.56246 15.6117 6.19652 15.6117C5.93544 15.6117 5.74285 15.8044 5.66272 16.0288C5.64387 16.1055 5.62528 16.2017 5.62528 16.2909V18.163H4.88043V16.3553C4.88043 15.9198 4.71314 15.6117 4.35935 15.6117C4.07385 15.6117 3.88171 15.8428 3.81328 16.0603C3.78204 16.1377 3.76951 16.2272 3.76951 16.3168V18.163H3.0253V15.9709Z" fill="#003D79"/>
<path fill-rule="evenodd" clip-rule="evenodd" d="M10.3811 17.4131C10.3811 17.6949 10.3935 17.9701 10.4245 18.163H9.73545L9.68599 17.8169H9.66714C9.48107 18.0607 9.16459 18.2335 8.77367 18.2335C8.16537 18.2335 7.82422 17.7788 7.82422 17.3042C7.82422 16.5154 8.50038 16.1184 9.6175 16.1247V16.0732C9.6175 15.868 9.53673 15.5285 9.00312 15.5285C8.70511 15.5285 8.3947 15.6248 8.19003 15.7591L8.0409 15.2468C8.26473 15.1055 8.65603 14.9707 9.13347 14.9707C10.102 14.9707 10.3811 15.6057 10.3811 16.2848V17.4131ZM9.6367 16.6378C9.0969 16.6248 8.58195 16.7466 8.58195 17.221C8.58195 17.5284 8.77428 17.6697 9.01639 17.6697C9.32009 17.6697 9.54386 17.4645 9.61191 17.2402C9.63038 17.1825 9.6367 17.1182 9.6367 17.0671V16.6378Z" fill="#003D79"/>
<path fill-rule="evenodd" clip-rule="evenodd" d="M10.9097 15.9709C10.9097 15.6117 10.9029 15.3103 10.8848 15.0415H11.5544L11.5919 15.5094H11.6102C11.7407 15.2661 12.0696 14.9707 12.5721 14.9707C13.0998 14.9707 13.6458 15.3232 13.6458 16.3106V18.163H12.8826V16.4005C12.8826 15.9515 12.7213 15.6117 12.3055 15.6117C12.0014 15.6117 11.7904 15.8361 11.7096 16.0734C11.6851 16.1441 11.6787 16.2404 11.6787 16.3295V18.163H10.9097V15.9709Z" fill="#003D79"/>
<path fill-rule="evenodd" clip-rule="evenodd" d="M16.9554 13.7871V17.2844C16.9554 17.6049 16.9676 17.9516 16.98 18.1629H16.2974L16.2668 17.6694H16.2542C16.0741 18.0157 15.7074 18.2335 15.2673 18.2335C14.5477 18.2335 13.9766 17.599 13.9766 16.6375C13.9703 15.5926 14.6033 14.9707 15.3293 14.9707C15.7449 14.9707 16.043 15.1504 16.1793 15.3813H16.1919V13.7871H16.9554ZM16.1907 16.3421C16.1907 16.2786 16.1843 16.2014 16.1723 16.1375C16.104 15.8298 15.8618 15.5796 15.5143 15.5796C15.024 15.5796 14.7509 16.0286 14.7509 16.6119C14.7509 17.1822 15.024 17.5989 15.5081 17.5989C15.8182 17.5989 16.0914 17.3811 16.1658 17.0414C16.1843 16.9706 16.1907 16.8938 16.1907 16.8102V16.3421Z" fill="#003D79"/>
<path fill-rule="evenodd" clip-rule="evenodd" d="M17.4941 18.1632H18.2644V15.042H17.4941V18.1632Z" fill="#003D79"/>
<path fill-rule="evenodd" clip-rule="evenodd" d="M18.8033 16.0483C18.8033 15.6254 18.7969 15.3237 18.7783 15.042H19.4425L19.4668 15.6379H19.4925C19.6412 15.1956 19.995 15.042 20.3175 15.042C20.3919 15.042 20.4352 15.0288 20.4975 15.042V15.7344C20.4352 15.7216 20.3671 15.7088 20.274 15.7088C19.908 15.7088 19.6595 15.9522 19.5913 16.3045C19.5793 16.3751 19.5667 16.4587 19.5667 16.5489V18.1636H18.8033V16.0483Z" fill="#003D79"/>
<path fill-rule="evenodd" clip-rule="evenodd" d="M20.8525 18.1632H21.6217V15.042H20.8525V18.1632Z" fill="#003D79"/>
<path fill-rule="evenodd" clip-rule="evenodd" d="M20.6698 11.2689C20.2078 11.5452 19.1181 12.1908 18.7113 12.4312C18.4634 12.5617 17.8892 12.6186 17.5644 12.1663C17.5586 12.1581 17.1324 11.6081 17.115 11.5874C17.1028 11.5728 16.8273 11.1507 16.2135 11.1375C16.1228 11.1353 15.6718 11.1328 15.2318 11.3911C14.647 11.7362 13.2868 12.5395 13.2868 12.5395C13.2864 12.5395 13.2864 12.5402 13.2857 12.5402C12.7267 12.8706 12.291 13.1279 12.291 13.1279L12.8057 13.7808C13.0465 14.0896 13.5895 14.3285 14.0603 14.0493C14.0603 14.0493 15.8002 13.0086 15.8065 13.0056C16.559 12.5794 17.1396 12.5794 17.5249 12.738C17.8708 12.889 18.1718 13.2651 18.1718 13.2651C18.1718 13.2651 18.565 13.7685 18.6344 13.8566C18.8582 14.1411 19.2285 14.0293 19.2285 14.0293C19.2285 14.0293 19.3658 14.0133 19.5727 13.8864C19.5727 13.8864 21.2579 12.8771 21.259 12.8767C21.7941 12.5525 22.2849 12.4919 22.5357 12.5157C23.3214 12.5895 23.5654 13.1564 23.9061 13.5519C24.1067 13.7845 24.2877 13.9166 24.5645 13.91C24.7464 13.906 24.9519 13.7921 24.9822 13.7715L27.0003 12.5685C27.0003 12.5685 26.7932 12.2464 26.3691 11.7452C25.9896 11.298 25.5865 11.5003 25.2651 11.6648C25.13 11.7338 24.6407 12.0699 24.156 12.3045C23.8106 12.4715 23.3145 12.4213 23.0426 12.0743C23.0264 12.0532 22.5865 11.5031 22.5403 11.4354C22.3628 11.2057 22.0164 11 21.5724 11C21.3025 11 20.9962 11.076 20.6698 11.2689Z" fill="url(#paint0_linear_857_325)"/>
<defs>
<linearGradient id="paint0_linear_857_325" x1="12.291" y1="14.173" x2="27.0003" y2="14.173" gradientUnits="userSpaceOnUse">
<stop stop-color="#FFCA06"/>
<stop offset="0.330844" stop-color="#FBAA18"/>
<stop offset="0.694742" stop-color="#FFC907"/>
<stop offset="1" stop-color="#FAA619"/>
</linearGradient>
</defs>
</svg>
